<svg xmlns="http://www.w3.org/2000/svg" xmlns:xlink="http://www.w3.org/1999/xlink" version="1.1" x="0px" y="0px" viewBox="0 0 500 500" style="enable-background:new 0 0 500 500;" xml:space="preserve">
<g id="Background_Complete">
	<g>
		<rect y="382.398" style="fill:#EBEBEB;" width="500" height="0.25"/>
		<rect x="416.779" y="398.494" style="fill:#EBEBEB;" width="33.122" height="0.25"/>
		<rect x="322.527" y="401.208" style="fill:#EBEBEB;" width="8.693" height="0.25"/>
		<rect x="396.586" y="389.208" style="fill:#EBEBEB;" width="19.192" height="0.25"/>
		<rect x="52.459" y="390.888" style="fill:#EBEBEB;" width="43.193" height="0.25"/>
		<rect x="104.556" y="390.888" style="fill:#EBEBEB;" width="6.333" height="0.25"/>
		<rect x="131.471" y="395.111" style="fill:#EBEBEB;" width="93.676" height="0.25"/>
		<path style="fill:#EBEBEB;" d="M237.014,337.8H43.915c-3.147,0-5.708-2.561-5.708-5.708V60.66c0-3.147,2.561-5.708,5.708-5.708    h193.099c3.146,0,5.707,2.561,5.707,5.708v271.432C242.721,335.239,240.16,337.8,237.014,337.8z M43.915,55.203    c-3.01,0-5.458,2.448-5.458,5.458v271.432c0,3.01,2.448,5.458,5.458,5.458h193.099c3.009,0,5.457-2.448,5.457-5.458V60.66    c0-3.009-2.448-5.458-5.457-5.458H43.915z"/>
		<path style="fill:#EBEBEB;" d="M453.31,337.8H260.212c-3.147,0-5.707-2.561-5.707-5.708V60.66c0-3.147,2.561-5.708,5.707-5.708    H453.31c3.148,0,5.708,2.561,5.708,5.708v271.432C459.019,335.239,456.458,337.8,453.31,337.8z M260.212,55.203    c-3.009,0-5.457,2.448-5.457,5.458v271.432c0,3.01,2.448,5.458,5.457,5.458H453.31c3.01,0,5.458-2.448,5.458-5.458V60.66    c0-3.009-2.448-5.458-5.458-5.458H260.212z"/>
	</g>
	<g>
		<g>
			<g>
				<path style="fill:#F0F0F0;" d="M146.861,290.592H75.658v88.998h71.203c6.887,0,12.521-5.635,12.521-12.521v-63.955      C159.382,296.227,153.747,290.592,146.861,290.592z"/>
				<path style="fill:#F5F5F5;" d="M76.247,290.592h-1.179c-6.887,0-12.521,5.634-12.521,12.521v63.955      c0,6.887,5.634,12.521,12.521,12.521h1.179c6.887,0,12.521-5.635,12.521-12.521v-63.955      C88.768,296.227,83.134,290.592,76.247,290.592z"/>
			</g>
			
				<rect x="85.191" y="323.419" transform="matrix(-1 -1.224647e-16 1.224647e-16 -1 263.3129 703.0088)" style="fill:#F0F0F0;" width="92.931" height="56.171"/>
			<path style="fill:#E0E0E0;" d="M77.558,382.398h167.488c1.418,0,2.568-1.15,2.568-2.567v-0.241H146.897l-71.906,0.241     C74.991,381.249,76.14,382.398,77.558,382.398z"/>
			<path style="fill:#E0E0E0;" d="M150.917,253.667h86.465c9.644,0,16.776,7.818,15.931,17.462l-5.699,64.99H126.225l5.699-64.99     C132.77,261.485,141.273,253.667,150.917,253.667z"/>
			<path style="fill:#F5F5F5;" d="M137.257,253.667h88.148c9.179,0,15.968,7.441,15.163,16.62l-5.773,65.832H113.407l5.773-65.832     C119.984,261.108,128.078,253.667,137.257,253.667z"/>
			<path style="fill:#E0E0E0;" d="M92.64,318.29h73.61c4.354,0,7.884,3.53,7.884,7.884v7.108c0,4.354-3.53,7.884-7.884,7.884H92.64     c-6.317,0-11.438-5.121-11.438-11.438l0,0C81.202,323.411,86.323,318.29,92.64,318.29z"/>
			<path style="fill:#F0F0F0;" d="M249.73,290.592h-71.203v88.998h71.203c6.887,0,12.521-5.635,12.521-12.521v-63.955     C262.251,296.227,256.617,290.592,249.73,290.592z"/>
			<path style="fill:#F5F5F5;" d="M179.117,290.592h-1.179c-6.887,0-12.521,5.634-12.521,12.521v63.955     c0,6.887,5.635,12.521,12.521,12.521h1.179c6.887,0,12.521-5.635,12.521-12.521v-63.955     C191.638,296.227,186.003,290.592,179.117,290.592z"/>
		</g>
		<g>
			<g>
				<rect x="306.56" y="241.667" style="fill:#F0F0F0;" width="68.455" height="140.732"/>
				
					<rect x="256.6" y="311.243" transform="matrix(-1.836970e-16 1 -1 -1.836970e-16 628.0366 -3.9716)" style="fill:#E6E6E6;" width="118.808" height="1.578"/>
				<rect x="315.215" y="252.629" style="fill:#E6E6E6;" width="49.702" height="1.999"/>
			</g>
			<g>
				<rect x="376.593" y="241.667" style="fill:#F0F0F0;" width="68.455" height="140.732"/>
				
					<rect x="445.047" y="241.667" transform="matrix(-1 -1.224647e-16 1.224647e-16 -1 899.1554 624.0651)" style="fill:#E0E0E0;" width="9.06" height="140.732"/>
				
					<rect x="326.633" y="311.243" transform="matrix(-1.836970e-16 1 -1 -1.836970e-16 698.0698 -74.0048)" style="fill:#E6E6E6;" width="118.808" height="1.578"/>
				
					<rect x="306.237" y="312.043" transform="matrix(-1.836970e-16 1 -1 -1.836970e-16 688.6354 -62.9717)" style="fill:#E6E6E6;" width="139.133" height="1.578"/>
				<rect x="385.248" y="252.629" style="fill:#E6E6E6;" width="49.702" height="1.999"/>
			</g>
			<rect x="368.612" y="272.802" style="fill:#E0E0E0;" width="3.402" height="31.097"/>
			<rect x="379.593" y="272.802" style="fill:#E0E0E0;" width="3.402" height="31.097"/>
		</g>
		<g>
			<rect x="77.088" y="94.919" style="fill:#E0E0E0;" width="349.023" height="124.487"/>
			<rect x="73.889" y="94.919" style="fill:#F0F0F0;" width="349.023" height="124.487"/>
			
				<rect x="196.627" y="-6.877" transform="matrix(-1.836970e-16 1 -1 -1.836970e-16 405.5631 -91.2371)" style="fill:#fafafa;" width="103.545" height="328.081"/>
			<polygon style="fill:#FFFFFF;" points="137.618,208.936 159.363,105.39 207.354,105.39 185.61,208.936    "/>
			<polygon style="fill:#FFFFFF;" points="205.859,208.936 227.604,105.39 251.6,105.39 229.855,208.936    "/>
			<polygon style="fill:#FFFFFF;" points="352.375,208.936 374.119,105.39 398.115,105.39 376.371,208.936    "/>
		</g>
	</g>
</g>
<g id="Background_Simple" style="display:none;">
	<g style="display:inline;">
		<path style="fill:#d93993;" d="M155.785,142.758c28.216-4.295,53.034-22.447,72.537-45.581    c84.641-118.701,259.312-34.488,160.18,112.24c-48.023,75.84-112.867,90.048-179.653,94.653    C74.927,320.298,59.52,205.843,72.511,172.418C85.96,139.636,128.739,147.696,155.785,142.758z"/>
		<path style="opacity:0.9;fill:#FFFFFF;" d="M155.785,142.758c28.216-4.295,53.034-22.447,72.537-45.581    c84.641-118.701,259.312-34.488,160.18,112.24c-48.023,75.84-112.867,90.048-179.653,94.653    C74.927,320.298,59.52,205.843,72.511,172.418C85.96,139.636,128.739,147.696,155.785,142.758z"/>
	</g>
</g>
<g id="Shadow_1_">
	<ellipse id="_x3C_Path_x3E__162_" style="fill:#F5F5F5;" cx="250" cy="416.238" rx="193.889" ry="11.323"/>
</g>
<g id="Character_1_">
	<g>
		<path style="fill:#263238;" d="M166.009,115.644c2.519-5.778-19.803-11.033-26.553,6.772c-6.117,16.136-16.278,20.25-11.5,31.421    c5.173,12.096,34.425,13.545,47.128,0.14c10.297-10.866-0.889-15.444,0.555-25.667    C177.084,118.089,174.046,114.755,166.009,115.644z"/>
		<path style="fill:#263238;" d="M125.342,150.257c-1.161-6.299,1.176-8.898,4.135-12.188c2.699-3.002,6.059-6.737,7.898-14.764    c1.492-6.51,5.942-10.769,12.531-11.99c6.595-1.224,13.588,0.933,15.434,3.679c0.607,0.903,0.644,1.864,0.104,2.706l-0.842-0.54    c0.325-0.507,0.295-1.033-0.092-1.608c-1.639-2.437-8.296-4.389-14.422-3.253c-4.366,0.81-9.947,3.415-11.738,11.231    c-1.898,8.279-5.353,12.121-8.129,15.209c-2.883,3.207-4.966,5.523-3.895,11.339L125.342,150.257z"/>
		<path style="fill:#FFC3BD;" d="M111.589,145.469l-0.624-1.992c-0.425-1.357-1.197-2.58-2.241-3.546l-1.967-1.821    c-1.303-1.206-3.281-1.311-4.704-0.249l-2.147,1.604c-1.645,1.228-1.968,3.564-0.718,5.192l1.385,1.804    c0,0,3.233,5.474,7.924,7.377l1.08-0.922c0.018-0.015,0.035-0.03,0.053-0.045C111.718,151.057,112.415,148.107,111.589,145.469z"/>
		<path style="fill:#FFC3BD;" d="M150.46,180.186l-0.64,0.49l-0.519,0.379l-1.005,0.7c-0.669,0.442-1.341,0.855-2.02,1.25    c-1.357,0.792-2.759,1.487-4.2,2.129c-2.89,1.253-5.976,2.228-9.248,2.753c-3.258,0.56-6.729,0.597-10.167,0.061    c-1.717-0.275-3.423-0.701-5.061-1.306c-0.415-0.135-0.816-0.303-1.218-0.471l-0.602-0.251l-0.3-0.126l-0.332-0.147l-0.415-0.199    c-1.054-0.542-1.833-1.158-2.397-1.69c-0.599-0.556-1.024-1.059-1.407-1.545c-1.443-1.902-2.082-3.453-2.718-4.95    c-0.599-1.487-1.06-2.899-1.471-4.29c-0.768-2.79-1.36-5.477-1.81-8.172c-0.912-5.386-1.432-10.656-1.53-16.098    c-0.041-2.235,1.738-4.08,3.973-4.12c1.773-0.032,3.301,1.081,3.877,2.66l0.038,0.108c1.738,4.791,3.414,9.694,5.175,14.357    c0.904,2.323,1.786,4.627,2.787,6.727c0.477,1.052,0.978,2.058,1.484,2.924c0.479,0.845,1.077,1.606,1.272,1.728    c0.034,0.012,0.045-0.007-0.064-0.134c-0.087-0.091-0.326-0.334-0.801-0.584l-0.194-0.097c-0.054-0.026-0.176-0.071-0.108-0.05    l0.159,0.039l0.316,0.08c0.209,0.055,0.415,0.115,0.63,0.146c0.837,0.197,1.7,0.244,2.556,0.309    c1.725,0.087,3.511-0.133,5.354-0.561c1.834-0.452,3.723-1.104,5.576-1.977c0.934-0.416,1.849-0.907,2.748-1.404    c0.452-0.247,0.89-0.511,1.314-0.771l1.043-0.647l0.781-0.485c3.779-2.345,8.743-1.183,11.088,2.596    C154.602,173.09,153.689,177.694,150.46,180.186z"/>
		<path style="fill:#d93993;" d="M168.039,411.875c6.333-2.083,11.665-6.363,10.588-13.873c-0.462-3.22,9.865-4.479,9.865-4.479    c-1.176,10.229,0.107,11.954,1.34,14.311c1.238,2.368,1.156,5.134-0.98,5.389c-2.559,0.305-3.134,0.022-6.311,0.444    c-3.715,0.494-6.125,2.437-13.556,2.437C164.914,416.104,166.006,412.544,168.039,411.875z"/>
		<path style="fill:#d93993;" d="M187.251,302.611c0.733-51.24-4.017-79.167-4.017-79.167l-37.91,1.887    c0,0,5.607,46.879,15.561,81.41c2.66,18.53,8.653,49.873,12.803,70.918c6.555-0.663,13.123-1.794,18.167-3.44    C193.327,355.726,193.592,328.978,187.251,302.611z"/>
		<path style="fill:#FFC3BD;" d="M188.068,398.541c0,0,1.481-9.682,2.478-24.321c-4.316,1.646-9.938,2.776-15.548,3.44    c2.158,12.785,3.699,20.922,3.699,20.922C180.581,399.5,185.361,399.82,188.068,398.541z"/>
		<path style="fill:#263238;" d="M171.636,371.531c0.339,1.76,1.251,6.17,2.16,7.716c0.109,0.185,0.295,0.308,0.508,0.335    c7.066,0.891,14.129-0.535,17.051-1.81c0.164-0.072,0.287-0.198,0.35-0.365c0.794-2.115,1.085-6.579,1.175-8.459    c0.021-0.437-0.368-0.777-0.798-0.692c-2.319,0.459-9.378,1.73-19.825,2.483C171.855,370.767,171.559,371.135,171.636,371.531z"/>
		<g>
			<path style="fill:#263238;" d="M145.84,165.081c-5.619,1.044-14.192,5.75-14.192,5.75s-4.51,10.8,0.89,18.581     c5.324,1.254,8.03,0.23,8.03,0.23L145.84,165.081z"/>
			<path style="opacity:0.2;" d="M132.538,189.412c5.324,1.254,8.029,0.23,8.029,0.23l-0.187-14.575     C136.736,179.935,133.732,184.748,132.538,189.412z" fill="#000000"/>
		</g>
		<path style="opacity:0.2;" d="M187.046,272.38c-4.24-10.37-8.8-18.91-10.55-26.71c-2.98,21.21-0.64,40.72,10.77,54.7    C187.396,290.05,187.286,280.71,187.046,272.38z" fill="#000000"/>
		<g>
			<path style="fill:#d93993;" d="M244.966,353.7l-15.13,10.76c-12.35-16.09-30.87-40.67-35.35-51.37     c-11.38-27.15-34.261-86.974-34.261-86.974l29.7-6.896c0,0,18.74,17.4,30.83,83.061C230.906,316.63,239.426,337.79,244.966,353.7     z"/>
			<path style="fill:#d93993;" d="M244.128,404.702c3.773-7.369,3.824-15.495-0.252-21.893c-1.748-2.743,7.143-8.146,7.143-8.146     c3.144,9.805,5.698,10.376,7.883,11.893c2.249,1.562,2.404,4.796,0.562,5.908c-2.206,1.332-3.056,2.201-5.007,4.744     c-2.28,2.974-3.556,7.125-6.826,9.687C245.539,408.533,242.475,407.93,244.128,404.702z"/>
			<path style="fill:#FFC3BD;" d="M252.674,379.155c0,0-2.614-9.177-7.738-22.927c-3.255,3.278-7.911,6.625-12.749,9.541     c7.235,10.76,12.521,18.491,12.521,18.491C247.922,383.238,250.734,381.436,252.674,379.155z"/>
			<path style="fill:#263238;" d="M226.598,361.57c1.034,1.464,3.683,5.106,5.148,6.141c0.175,0.124,0.395,0.159,0.6,0.096     c6.805-2.1,12.654-6.31,14.79-8.676c0.12-0.133,0.18-0.299,0.168-0.477c-0.148-2.254-1.722-6.442-2.415-8.192     c-0.161-0.407-0.656-0.556-1.012-0.302c-1.924,1.374-7.832,5.441-17.041,10.432C226.482,360.785,226.365,361.241,226.598,361.57z     "/>
		</g>
		<path style="fill:#263238;" d="M137.262,180.044c1.36,8.845-3.915,15.707,4.194,19.789c-1.345,6.722,0.655,20.167,3.868,25.498    c4.503,2.446,26.567-1.173,44.6-6.111c-0.265-7.697-6.597-22.847-4.838-48.066c0.408-5.847-4.338-10.758-10.196-10.548    c-1.565,0.056-3.218,0.151-4.904,0.299c-6.552,0.578-11.913,1.101-17.564,2.408c-1.873,0.433-3.8,0.942-5.636,1.461    C140.161,166.647,136.215,173.238,137.262,180.044z"/>
		<path style="fill:#FFFFFF;" d="M150.012,173.273c0,0,5.644-2.066,8.611,3.005c4.924-2.767,11.862-14.479,11.364-15.373    C161.734,163.167,150.012,173.273,150.012,173.273z"/>
		<path style="fill:#FFFFFF;" d="M150.012,173.273c0,0-4.292-0.509-5.5,3.283c0.042-7.5,5.056-12.213,7.271-13.092    C151.039,165.417,150.012,173.273,150.012,173.273z"/>
		<path style="fill:#FFC3BD;" d="M167.816,141.053c-0.626,5.843-0.729,15.249,2.171,19.852c0,0-10.95,7.539-19.975,12.367    c-2.833-6.55,1.771-9.809,1.771-9.809c4.289-1.648,4.251-7.134,3.67-11.337L167.816,141.053z"/>
		<path style="opacity:0.2;" d="M155.449,152.127l7.033-6.3c0.259,0.95,0.149,2.337-0.223,3.534    c-1.101,3.462-3.999,6.238-6.578,7.748C155.808,155.453,155.666,153.705,155.449,152.127z" fill="#000000"/>
		<path style="fill:#FFC3BD;" d="M170.077,130.184c-0.945,9.493-1.147,13.531-6.051,18.231c-7.377,7.069-18.603,3.826-20.458-5.759    c-1.669-8.628,0.157-22.702,9.439-26.131C162.153,113.145,171.023,120.691,170.077,130.184z"/>
		<path style="fill:#263238;" d="M167.956,137.129c-3.417-3.046-2.833-8.314-0.333-10.846c2.5-2.533,6.016,2.703,6.016,2.703    L167.956,137.129z"/>
		<path style="fill:#263238;" d="M156.406,132.812c-0.03,0.775-0.465,1.387-0.972,1.367c-0.507-0.02-0.893-0.664-0.862-1.439    c0.03-0.775,0.465-1.387,0.972-1.367C156.05,131.393,156.436,132.037,156.406,132.812z"/>
		<path style="fill:#263238;" d="M146.873,132.575c-0.03,0.775-0.465,1.387-0.972,1.367c-0.507-0.02-0.893-0.664-0.862-1.439    c0.03-0.775,0.465-1.387,0.972-1.367C146.517,131.156,146.903,131.801,146.873,132.575z"/>
		<path style="fill:#263238;" d="M146.232,131.188l-1.84-0.609C144.393,130.579,145.29,132.07,146.232,131.188z"/>
		<path style="fill:#ED847E;" d="M149.216,132.882c0,0-1.445,3.284-2.955,4.837c0.985,0.995,2.742,0.626,2.742,0.626    L149.216,132.882z"/>
		<path style="fill:#263238;" d="M153.346,141.383c-0.404,0.055-0.839,0.079-1.304,0.061c-0.125-0.005-0.223-0.111-0.219-0.237    c0.005-0.125,0.108-0.222,0.237-0.219c3.398,0.135,5.081-2.18,5.098-2.203c0.073-0.103,0.215-0.127,0.317-0.055    c0.103,0.073,0.127,0.215,0.054,0.317C157.465,139.139,156.111,141.004,153.346,141.383z"/>
		<path style="fill:#FFC3BD;" d="M171.663,138.142c-0.901,1.798-2.423,2.903-3.841,3.258c-2.132,0.534-3.12-1.815-2.462-4.154    c0.592-2.105,2.415-4.92,4.523-4.402C171.961,133.354,172.693,136.086,171.663,138.142z"/>
		<path style="fill:#263238;" d="M165.159,116.667c-7.536,4.75-15.584,7.083-22.143,7.917    C142.956,117.75,156.362,110.083,165.159,116.667z"/>
		<path style="fill:#263238;" d="M160.012,117.5c-1.556,6,13.944,16.966,11.027,27.583c5.083-7.917,1.417-25.715,1.417-25.715    S159.318,111.083,160.012,117.5z"/>
		<path style="fill:#263238;" d="M158.402,127.713c-0.119-0.02-0.23-0.086-0.303-0.193c-1.142-1.68-2.816-1.667-2.836-1.667    c-0.248,0.003-0.459-0.195-0.464-0.447c-0.005-0.251,0.195-0.459,0.447-0.464c0.088-0.001,2.19-0.019,3.606,2.066    c0.141,0.208,0.087,0.491-0.121,0.633C158.631,127.708,158.513,127.731,158.402,127.713z"/>
		<path style="fill:#263238;" d="M142.651,127.375c-0.113-0.002-0.226-0.047-0.312-0.133c-0.178-0.178-0.178-0.466-0.001-0.644    c1.779-1.782,3.842-1.375,3.929-1.356c0.246,0.052,0.404,0.293,0.352,0.539c-0.051,0.246-0.292,0.403-0.538,0.353    c-0.081-0.017-1.684-0.31-3.099,1.107C142.892,127.334,142.771,127.378,142.651,127.375z"/>
		<path style="fill:#263238;" d="M155.766,131.425l-1.84-0.609C153.926,130.816,154.824,132.306,155.766,131.425z"/>
		<path style="opacity:0.2;" d="M184.846,176.031c-0.192,5.922,0.061,11.243,0.535,15.983c-5.027-5.283-11.285-15.25-11.693-20.249    L184.846,176.031z" fill="#000000"/>
		<path style="fill:#FFC3BD;" d="M217.496,157.218l1.098-6.35l9.864,3.809c0,0-2.285,5.912-6.495,8.523l-1.172-0.742    C218.885,161.251,217.673,159.324,217.496,157.218z"/>
		<path style="fill:#FFC3BD;" d="M224.751,147.333l3.24,1.762c1.477,0.803,2.031,2.647,1.24,4.131l-0.773,1.451l-9.864-3.809    l2.341-2.806C221.871,146.94,223.468,146.635,224.751,147.333z"/>
		<path style="fill:#FFC3BD;" d="M183.093,164.475l1.252,1.298l1.371,1.386c0.934,0.914,1.862,1.838,2.822,2.719    c1.898,1.788,3.866,3.454,5.828,4.997c1.975,1.509,3.979,2.871,5.903,3.896c1.928,1.016,3.755,1.652,5.092,1.821l-2.689,0.5    c-0.661,0.315-0.621,0.455-0.48,0.351c0.148-0.085,0.431-0.324,0.738-0.627c0.623-0.622,1.326-1.505,2.004-2.455    c1.358-1.928,2.741-4.12,4.034-6.387c1.325-2.261,2.605-4.607,3.89-6.973l3.854-7.124l0.032-0.059    c1.065-1.969,3.524-2.702,5.493-1.637c1.554,0.841,2.336,2.558,2.073,4.209c-0.464,2.879-1.087,5.601-1.791,8.372    c-0.712,2.757-1.535,5.493-2.482,8.239c-0.986,2.734-2.032,5.486-3.481,8.287c-0.734,1.407-1.534,2.833-2.629,4.36    c-0.554,0.767-1.189,1.558-2.055,2.401c-0.869,0.825-1.953,1.792-3.891,2.629c-0.733,0.316-1.494,0.476-2.246,0.494l-0.443,0.006    c-4.425,0.082-8.206-1.023-11.473-2.405c-1.638-0.699-3.19-1.468-4.657-2.295c-1.455-0.843-2.849-1.729-4.19-2.649    c-2.678-1.839-5.131-3.851-7.458-5.95c-1.155-1.061-2.293-2.129-3.379-3.255c-0.546-0.559-1.089-1.125-1.621-1.709    c-0.548-0.607-1.017-1.136-1.65-1.883c-2.882-3.403-2.459-8.498,0.944-11.38c3.262-2.762,8.079-2.488,11.011,0.537    L183.093,164.475z"/>
		<path style="fill:#263238;" d="M175.332,160.618c7.326,0.224,14.62,9.025,14.62,9.025s-2.826,11.647-10.856,16.669    c-4.515-3.524-8.346-6.34-8.346-6.34C164.356,170.584,166.485,164.355,175.332,160.618z"/>
		<g>
			<path style="fill:#d93993;" d="M143.858,224.636c0.539,3.137,1.19,5.591,1.399,6.346c0.045,0.162,0.148,0.292,0.295,0.374     c1.072,0.595,5.95,2.965,14.905,2.478c10.053-0.546,24.672-5.982,32.287-11.815c0.228-0.175,0.309-0.482,0.196-0.747     c-0.643-1.505-1.597-3.053-2.054-3.762c-0.153-0.237-0.443-0.342-0.713-0.261c-3.278,0.985-23.928,6.91-45.682,6.651     C144.096,223.896,143.791,224.247,143.858,224.636z"/>
			<path style="opacity:0.3;fill:#FFFFFF;" d="M143.858,224.636c0.539,3.137,1.19,5.591,1.399,6.346     c0.045,0.162,0.148,0.292,0.295,0.374c1.072,0.595,5.95,2.965,14.905,2.478c10.053-0.546,24.672-5.982,32.287-11.815     c0.228-0.175,0.309-0.482,0.196-0.747c-0.643-1.505-1.597-3.053-2.054-3.762c-0.153-0.237-0.443-0.342-0.713-0.261     c-3.278,0.985-23.928,6.91-45.682,6.651C144.096,223.896,143.791,224.247,143.858,224.636z"/>
		</g>
	</g>
</g>
<g id="Profile">
	<g>
		<g>
			<path style="fill:#d93993;" d="M344.268,386.41H212.609c-10.382,0-18.377-8.494-17.768-18.875l16.05-273.659     C211.5,83.494,220.492,75,230.874,75h131.659c10.382,0,18.377,8.494,17.768,18.875l-16.05,273.659     C363.642,377.916,354.65,386.41,344.268,386.41z"/>
			<path style="opacity:0.8;fill:#FFFFFF;" d="M344.268,386.41H212.609c-10.382,0-18.377-8.494-17.768-18.875l16.05-273.659     C211.5,83.494,220.492,75,230.874,75h131.659c10.382,0,18.377,8.494,17.768,18.875l-16.05,273.659     C363.642,377.916,354.65,386.41,344.268,386.41z"/>
		</g>
		<g>
			<path style="fill:#d93993;" d="M343.487,380.935H215.499c-7.296,0-12.915-5.969-12.487-13.266l15.98-272.463     c0.428-7.296,6.748-13.266,14.044-13.266h127.988c7.296,0,12.915,5.969,12.488,13.266l-15.98,272.463     C357.103,374.966,350.783,380.935,343.487,380.935z"/>
			<path style="fill:#FFFFFF;" d="M342.107,379.469H214.118c-7.296,0-12.915-5.97-12.488-13.266l15.98-272.463     c0.428-7.296,6.747-13.266,14.044-13.266h127.988c7.296,0,12.915,5.969,12.487,13.266l-15.98,272.463     C355.722,373.499,349.403,379.469,342.107,379.469z"/>
			<path style="opacity:0.1;fill:#d93993;" d="M338.37,369.338H219.043c-4.51,0-7.983-3.69-7.719-8.199l6.666-113.65     c0.264-4.51,4.171-8.199,8.68-8.199h119.327c4.51,0,7.983,3.69,7.719,8.199l-6.666,113.65     C346.786,365.648,342.88,369.338,338.37,369.338z"/>
			<path style="opacity:0.1;fill:#d93993;" d="M311.856,100.685h-34.784c-1.615,0-2.859-1.321-2.764-2.936l0,0     c0.095-1.615,1.493-2.936,3.108-2.936H312.2c1.615,0,2.859,1.321,2.764,2.936l0,0C314.869,99.363,313.47,100.685,311.856,100.685     z"/>
			
				<ellipse transform="matrix(0.7174 -0.6967 0.6967 0.7174 -39.0692 251.2711)" style="opacity:0.1;fill:#d93993;" cx="290.176" cy="173.791" rx="54.072" ry="50.992"/>
			<path style="fill:#d93993;" d="M253.405,208.573c-8.821-9.353-13.252-21.779-12.477-34.987l0.998,0.059     c-0.758,12.931,3.576,25.091,12.206,34.242L253.405,208.573z"/>
			<path style="fill:#d93993;" d="M339.424,173.996l-0.998-0.059c0.262-4.468-0.083-8.888-1.027-13.137l0.976-0.217     C339.338,164.923,339.691,169.436,339.424,173.996z"/>
			<path style="fill:#d93993;" d="M334.52,152.104c-2.048-4.565-4.841-8.74-8.301-12.409c-4.79-5.079-10.526-8.877-17.049-11.288     l0.347-0.938c6.669,2.465,12.533,6.347,17.43,11.54c3.537,3.75,6.392,8.019,8.486,12.686L334.52,152.104z"/>
			
				<ellipse transform="matrix(0.7174 -0.6967 0.6967 0.7174 -39.0695 251.2698)" style="fill:#d93993;" cx="290.176" cy="173.791" rx="47.115" ry="44.432"/>
			<g>
				<path style="fill:#263238;" d="M285.087,179.993c0.009-0.002,0.02-0.006,0.028-0.008c2.199-0.483,3.227-2.368,3.695-4.51      c0.047-0.221,0.091-0.443,0.127-0.669c0.011-0.065,0.021-0.13,0.031-0.196c0.133-0.905,0.188-1.828,0.202-2.693      c-4.169-0.455-7.666-3.702-7.862-8.537c-0.148-3.657,0.685-8.416,2.671-12.232c-0.4,0.055-0.87,0.205-1.35,0.56      c-0.08,0.059-0.176,0.078-0.266,0.063c-0.085-0.015-0.164-0.061-0.22-0.136c-0.113-0.154-0.081-0.371,0.073-0.485      c0.795-0.587,1.577-0.725,2.16-0.72c0.141-0.244,0.282-0.488,0.434-0.721c-0.634,0.014-1.254,0.015-1.854,0.001      c0.66-4.62,9.546-8.502,15.609-4.957c2.695,0.54,7.152,4.393,7.152,4.393s0.175,3.341-0.208,7.375v0.001l-0.001,0      c-0.396,4.173-1.389,9.088-3.794,11.823c0.63-1.416,0.785-2.914,0.635-4.441c-0.636,0.619-1.366,1.002-2.078,1.181      c-0.288,0.634-0.612,1.215-0.981,1.764c-0.941,4.288-1.607,10.009-0.175,13.289c1.286,0.081,2.541,0.198,3.726,0.335      c0.099,0.012,0.194,0.035,0.292,0.05c0.778-0.46,1.536-0.969,2.264-1.536c8.994-7.006-0.558-15.212,1.697-22.743      c2.255-7.531,0.348-10.388-5.804-10.637c2.557-4.063-13.65-10.569-20.766,2.066c-6.449,11.45-8.533,17.162-6.212,26.118      c0.735,2.835,2.754,5.189,5.512,6.894c0.449-0.122,0.906-0.224,1.381-0.283C282.474,180.242,283.793,180.102,285.087,179.993z"/>
				<path style="fill:#FFC3BD;" d="M271.097,197.599c-0.437-0.745-0.786-1.435-1.038-1.989c-0.679,2.016-1.349,4.035-2.014,6.027      c-0.611,1.802-1.208,3.601-1.825,5.318l-0.925,2.431l-0.405,0.96c-0.138,0.27,0,0.117-0.015,0.189      c-0.18,0.265-0.799,0.843-1.411,1.37c-0.119,0.101-0.25,0.205-0.374,0.307c2.738,1.843,5.705,3.389,8.87,4.57      c0.068-4.57,0.634-9.32,1.226-10.592C269.655,203.685,270.2,200.96,271.097,197.599z"/>
				<path style="fill:#263238;" d="M274.603,184.114c-0.086,0.109-0.171,0.23-0.257,0.346c0.085-0.115,0.173-0.227,0.262-0.338      L274.603,184.114z"/>
				<path style="fill:#263238;" d="M272.289,190.811c-0.004-2.276,0.696-4.413,1.914-6.159c-2.537,3.529-4.699,9.593-4.699,9.593      s0.178,0.536,0.555,1.364c0.252,0.554,0.601,1.244,1.038,1.989C271.632,195.592,272.294,193.359,272.289,190.811z"/>
				<path style="fill:#263238;" d="M307.151,205.318c-1.06-1.516-2.16-3.441-3.151-5.473c-0.305,0.163-0.61,0.324-0.93,0.462      c-2.997-3.169-5.56-5.727-5.56-5.727c-3.742-7.799-1.428-12.245,5.66-14.049c1.083,0.199,2.125,0.654,3.103,1.248      c-0.909-0.635-1.972-1.076-3.143-1.257c-0.098-0.015-0.192-0.038-0.292-0.05c-1.185-0.136-2.44-0.254-3.726-0.335      c0.272,0.73-6.145,9.952-10.169,11.473c-1.655-4.157-6.283-4.443-6.283-4.443S278.343,186.283,277,189      c0.884-5.616,6.293-8.576,8.087-9.007c-1.294,0.109-2.613,0.249-3.883,0.408c-0.475,0.06-0.933,0.162-1.381,0.283      c-2.108,0.572-3.905,1.797-5.214,3.437c-0.089,0.112-0.177,0.223-0.262,0.338c-0.047,0.064-0.097,0.127-0.143,0.192      c-1.219,1.745-1.919,3.882-1.914,6.159c0.005,2.548-0.656,4.781-1.192,6.788c-0.897,3.361-1.441,6.087,2.089,8.591      c-0.592,1.272-1.158,6.022-1.226,10.592c4.79,1.787,10.018,2.763,15.532,2.763c6.939,0,13.603-1.552,19.657-4.316      c-0.138-3.201-0.184-6.931,0.086-11.171c0-0.001-0.001-0.002-0.001-0.003C307.207,204.475,307.172,204.909,307.151,205.318z"/>
				<path style="fill:#FFFFFF;" d="M282.661,187.169c0,0,4.629,0.286,6.283,4.443c4.024-1.521,10.441-10.743,10.169-11.473      C299.113,180.138,290.008,184.564,282.661,187.169z"/>
				<path style="fill:#FFFFFF;" d="M285.115,179.985c-0.008,0.001-0.019,0.006-0.028,0.008c-1.794,0.431-7.203,3.391-8.087,9.007      c1.343-2.717,5.661-1.831,5.661-1.831C281.276,181.913,285.115,179.985,285.115,179.985z"/>
				<path style="fill:#FFC3BD;" d="M288.936,174.807c0.011-0.065,0.021-0.13,0.031-0.196      C288.957,174.676,288.947,174.741,288.936,174.807z"/>
				<path style="fill:#FFC3BD;" d="M299.289,166.85c-0.79,1.174-1.802,2.193-3.237,3.203c-0.555,0.391-1.125,0.697-1.699,0.966      c-1.292,2.237-3.596,3.839-5.576,4.628c0.013-0.056,0.021-0.115,0.033-0.172c-0.468,2.142-1.496,4.027-3.695,4.51      c0,0-3.839,1.928-2.454,7.183c7.347-2.605,16.452-7.03,16.452-7.03C297.681,176.858,298.347,171.137,299.289,166.85z"/>
				<path style="fill:#263238;" d="M288.81,175.475c0.048-0.221,0.09-0.444,0.127-0.669      C288.9,175.032,288.857,175.254,288.81,175.475z"/>
				<path style="opacity:0.2;" d="M288.81,175.475c0.048-0.221,0.09-0.444,0.127-0.669      C288.9,175.032,288.857,175.254,288.81,175.475z" fill="#000000"/>
				<path style="fill:#263238;" d="M289.169,171.917c-0.014,0.865-0.068,1.789-0.202,2.693c0.136-0.907,0.191-1.83,0.205-2.693      C289.171,171.918,289.17,171.918,289.169,171.917z"/>
				<path style="opacity:0.2;" d="M289.169,171.917c-0.014,0.865-0.068,1.789-0.202,2.693c0.136-0.907,0.191-1.83,0.205-2.693      C289.171,171.918,289.17,171.918,289.169,171.917z" fill="#000000"/>
				<path style="fill:#FFC3BD;" d="M294.353,171.019c-1.725,0.807-3.504,1.082-5.181,0.899c-0.013,0.862-0.068,1.786-0.205,2.693      c-0.01,0.066-0.02,0.13-0.031,0.196c-0.037,0.225-0.079,0.448-0.127,0.669c-0.013,0.057-0.02,0.116-0.033,0.172      C290.756,174.857,293.06,173.256,294.353,171.019z"/>
				<path style="opacity:0.2;" d="M294.353,171.019c-1.725,0.807-3.504,1.082-5.181,0.899c-0.013,0.862-0.068,1.786-0.205,2.693      c-0.01,0.066-0.02,0.13-0.031,0.196c-0.037,0.225-0.079,0.448-0.127,0.669c-0.013,0.057-0.02,0.116-0.033,0.172      C290.756,174.857,293.06,173.256,294.353,171.019z" fill="#000000"/>
				<path style="fill:#FFC3BD;" d="M294.353,171.019c0.575-0.269,1.145-0.575,1.699-0.966c1.435-1.01,2.447-2.029,3.237-3.203      c0.369-0.549,0.693-1.13,0.981-1.764c-0.188,0.047-0.377,0.103-0.559,0.12c-1.667,0.159-2.142-1.723-1.379-3.409      c0.233-0.514,0.583-1.072,1-1.562c-0.468-1.453-0.293-3.02,0.301-4.319c-1.525-3.121-3.134-5.979-3.281-8.096      c-4.069,1.261-8.049,1.812-11.544,1.891c-0.152,0.233-0.293,0.477-0.434,0.721c0.549,0.005,0.923,0.136,0.954,0.147      c0.18,0.067,0.271,0.267,0.204,0.446s-0.266,0.27-0.445,0.204c-0.036-0.014-0.487-0.165-1.109-0.08      c-1.986,3.816-2.819,8.574-2.671,12.232c0.196,4.835,3.693,8.082,7.862,8.537c0.001,0.001,0.002,0.001,0.003,0.001      C290.849,172.101,292.628,171.826,294.353,171.019z M292.122,151.377c0.066,0.009,1.651,0.236,2.479,1.967      c0.083,0.173,0.009,0.38-0.164,0.463c-0.083,0.04-0.174,0.043-0.256,0.017c-0.087-0.028-0.163-0.091-0.206-0.18      c-0.668-1.395-1.93-1.577-1.945-1.579c-0.187-0.027-0.323-0.199-0.298-0.39C291.758,151.486,291.932,151.352,292.122,151.377z       M291.773,156.318c-0.007,0.005-0.014,0.005-0.022,0.01c0.285,0.165,0.441,0.608,0.346,1.108      c-0.111,0.58-0.509,0.991-0.888,0.918c-0.379-0.073-0.596-0.602-0.485-1.182c0.064-0.334,0.227-0.597,0.422-0.759      c-0.433-0.164-0.688-0.764-0.688-0.764L291.773,156.318z M283.573,155.905c0.063-0.333,0.226-0.596,0.421-0.758      c-0.433-0.164-0.688-0.764-0.688-0.764l1.315,0.669c-0.008,0.005-0.014,0.005-0.022,0.01c0.285,0.165,0.441,0.608,0.346,1.107      c-0.111,0.58-0.509,0.991-0.888,0.918C283.679,157.014,283.462,156.485,283.573,155.905z M285.891,160.756      c0,0-1.365,0.077-1.993-0.785c1.314-0.997,2.778-3.304,2.778-3.304L285.891,160.756z M287.825,163.436      c-0.094-0.018-0.155-0.109-0.137-0.204c0.018-0.093,0.106-0.155,0.203-0.137c2.543,0.49,4.074-1.061,4.09-1.077      c0.066-0.069,0.176-0.071,0.245-0.004c0.069,0.066,0.071,0.176,0.004,0.245c-0.059,0.061-1.291,1.31-3.417,1.28      C288.502,163.534,288.173,163.502,287.825,163.436z"/>
				<polygon style="fill:#263238;" points="305.508,156.523 305.508,156.521 305.507,156.523     "/>
				<path style="fill:#263238;" d="M301.019,158.98c-0.418-1.038-0.896-2.065-1.385-3.065c-0.594,1.3-0.77,2.866-0.301,4.319      C299.823,159.659,300.409,159.181,301.019,158.98z"/>
				<path style="fill:#263238;" d="M291.146,156.413c-0.195,0.162-0.357,0.425-0.422,0.759c-0.111,0.58,0.106,1.109,0.485,1.182      c0.379,0.073,0.777-0.338,0.888-0.918c0.096-0.499-0.061-0.943-0.346-1.108C291.522,156.477,291.32,156.48,291.146,156.413z"/>
				<path style="fill:#263238;" d="M284.946,156.169c0.096-0.5-0.06-0.942-0.346-1.107c-0.229,0.149-0.431,0.152-0.605,0.085      c-0.195,0.162-0.358,0.425-0.421,0.758c-0.111,0.58,0.105,1.109,0.484,1.182C284.437,157.159,284.835,156.749,284.946,156.169z"/>
				<path style="fill:#263238;" d="M284.6,155.061c0.008-0.005,0.014-0.005,0.022-0.01l-1.315-0.669c0,0,0.255,0.6,0.688,0.764      C284.169,155.213,284.371,155.21,284.6,155.061z"/>
				<path style="fill:#ED847E;" d="M283.897,159.971c0.628,0.862,1.993,0.785,1.993,0.785l0.785-4.089      C286.675,156.667,285.212,158.974,283.897,159.971z"/>
				<path style="fill:#263238;" d="M292.226,162.014c-0.069-0.066-0.179-0.065-0.245,0.004c-0.016,0.016-1.547,1.566-4.09,1.077      c-0.097-0.018-0.185,0.044-0.203,0.137c-0.018,0.095,0.043,0.186,0.137,0.204c0.348,0.066,0.678,0.098,0.989,0.103      c2.125,0.03,3.358-1.219,3.417-1.28C292.296,162.19,292.294,162.081,292.226,162.014z"/>
				<path style="fill:#FFC3BD;" d="M301.019,158.98c-0.609,0.201-1.195,0.68-1.686,1.255c-0.418,0.49-0.768,1.048-1,1.562      c-0.763,1.686-0.287,3.567,1.379,3.409c0.181-0.017,0.371-0.073,0.559-0.12c0.712-0.179,1.442-0.562,2.078-1.181      C302.188,162.276,301.679,160.614,301.019,158.98z"/>
				<path style="fill:#263238;" d="M296.56,146.319c0.062-1.443,0.881-1.79,2.003-1.565c-6.063-3.545-14.949,0.337-15.609,4.957      c0.6,0.014,1.22,0.013,1.854-0.001c3.495-0.079,7.475-0.63,11.544-1.891C296.315,147.266,296.371,146.762,296.56,146.319z"/>
				<path style="fill:#263238;" d="M296.56,146.319c-0.189,0.443-0.246,0.947-0.207,1.5c0.147,2.117,1.756,4.975,3.281,8.096      c0.489,1,0.966,2.026,1.385,3.065c0.66,1.635,1.169,3.297,1.33,4.925c0.15,1.527-0.005,3.025-0.635,4.441      c2.405-2.735,3.398-7.65,3.794-11.823c0.001,0,0.001-0.001,0.001-0.001c0.383-4.034,0.208-7.375,0.208-7.375      s-4.457-3.853-7.152-4.393C297.441,144.529,296.622,144.876,296.56,146.319z"/>
				<path style="fill:#263238;" d="M292.031,152.065c0.015,0.002,1.277,0.184,1.945,1.579c0.043,0.089,0.119,0.152,0.206,0.18      c0.082,0.026,0.173,0.023,0.256-0.017c0.173-0.083,0.246-0.29,0.164-0.463c-0.829-1.731-2.413-1.958-2.479-1.967      c-0.19-0.025-0.364,0.108-0.39,0.298C291.708,151.866,291.844,152.039,292.031,152.065z"/>
				<path style="fill:#263238;" d="M285.086,151.229c0.179,0.066,0.378-0.025,0.445-0.204s-0.024-0.379-0.204-0.446      c-0.031-0.012-0.405-0.143-0.954-0.147c-0.583-0.005-1.365,0.133-2.16,0.72c-0.154,0.113-0.187,0.331-0.073,0.485      c0.055,0.075,0.135,0.121,0.22,0.136c0.09,0.016,0.186-0.004,0.266-0.063c0.48-0.355,0.95-0.505,1.35-0.56      C284.6,151.064,285.051,151.215,285.086,151.229z"/>
				<path style="fill:#263238;" d="M291.146,156.413c0.175,0.066,0.376,0.063,0.605-0.085c0.008-0.005,0.015-0.004,0.022-0.01      l-1.315-0.669C290.457,155.649,290.713,156.249,291.146,156.413z"/>
				<path style="fill:#263238;" d="M307.151,205.318c0.021-0.41,0.056-0.844,0.083-1.264c-0.56-0.894-1.137-1.79-1.725-2.687      c-0.379-0.569-0.768-1.14-1.154-1.71c-0.116,0.066-0.237,0.124-0.355,0.187C304.991,201.877,306.091,203.802,307.151,205.318z"/>
				<path style="opacity:0.2;" d="M307.151,205.318c0.021-0.41,0.056-0.844,0.083-1.264c-0.56-0.894-1.137-1.79-1.725-2.687      c-0.379-0.569-0.768-1.14-1.154-1.71c-0.116,0.066-0.237,0.124-0.355,0.187C304.991,201.877,306.091,203.802,307.151,205.318z" fill="#000000"/>
				<path style="fill:#FFC3BD;" d="M310.124,213.604l-0.032,0.16c3.99-2.156,7.665-4.855,10.92-7.996      c-0.566-1.687-1.218-3.23-1.918-4.729c-0.988-2.151-2.085-4.152-3.236-6.106c-0.992-1.718-2.059-3.362-3.15-4.983      c-1.021,2.089-3.84,7.123-8.353,9.708c0.387,0.57,0.775,1.141,1.154,1.71c0.587,0.896,1.165,1.792,1.725,2.687      c0,0.001,0.001,0.002,0.001,0.003c0.492,0.787,0.971,1.571,1.418,2.351c0.762,1.352,1.486,2.707,2.036,3.953l-0.103,0.683      C310.453,211.877,310.295,212.734,310.124,213.604z"/>
				<path style="fill:#263238;" d="M297.511,194.581c0,0,2.563,2.558,5.56,5.727c0.319-0.138,0.625-0.3,0.93-0.462      c0.118-0.063,0.239-0.121,0.355-0.187c4.513-2.586,7.332-7.619,8.353-9.708c0.287-0.586,0.439-0.952,0.439-0.952      s-2.894-4.801-6.874-7.218c-0.978-0.594-2.02-1.049-3.103-1.248C296.083,182.336,293.769,186.782,297.511,194.581z"/>
			</g>
			<path style="fill:#d93993;" d="M345.455,94.273h14.093c0.786,0,1.467-0.643,1.513-1.429l0,0c0.046-0.786-0.559-1.429-1.345-1.429     h-14.093c-0.786,0-1.467,0.643-1.513,1.429l0,0C344.064,93.63,344.669,94.273,345.455,94.273z"/>
			<path style="fill:#d93993;" d="M345.168,99.177h14.093c0.786,0,1.466-0.643,1.513-1.429l0,0c0.046-0.786-0.559-1.429-1.345-1.429     h-14.093c-0.786,0-1.467,0.643-1.513,1.429l0,0C343.776,98.534,344.382,99.177,345.168,99.177z"/>
			<path style="fill:#d93993;" d="M231.182,99.177h14.093c0.786,0,1.467-0.643,1.513-1.429l0,0c0.046-0.786-0.559-1.429-1.345-1.429     H231.35c-0.786,0-1.466,0.643-1.513,1.429l0,0C229.791,98.534,230.396,99.177,231.182,99.177z"/>
			<path style="fill:#d93993;" d="M344.88,104.081h14.093c0.786,0,1.467-0.643,1.513-1.429l0,0c0.046-0.786-0.559-1.429-1.345-1.429     h-14.093c-0.786,0-1.466,0.643-1.513,1.429l0,0C343.489,103.438,344.094,104.081,344.88,104.081z"/>
			<path style="fill:#FFFFFF;" d="M326.363,283.494H241.12c-6.789,0-12.018-5.555-11.62-12.344l0,0     c0.398-6.789,6.279-12.344,13.068-12.344h85.244c6.789,0,12.018,5.555,11.62,12.344l0,0     C339.034,277.939,333.153,283.494,326.363,283.494z"/>
			<path style="fill:#FFFFFF;" d="M324.418,316.658h-85.244c-6.789,0-12.018-5.555-11.62-12.344l0,0     c0.398-6.789,6.279-12.344,13.068-12.344h85.244c6.789,0,12.019,5.555,11.62,12.344l0,0     C337.088,311.103,331.208,316.658,324.418,316.658z"/>
			<path style="fill:#FFFFFF;" d="M322.473,349.822H237.23c-6.789,0-12.018-5.555-11.62-12.344v0     c0.398-6.789,6.279-12.344,13.068-12.344h85.244c6.789,0,12.019,5.555,11.62,12.344v0     C335.143,344.267,329.263,349.822,322.473,349.822z"/>
			
				<ellipse transform="matrix(0.7174 -0.6967 0.6967 0.7174 -120.1034 246.2248)" style="fill:#d93993;" cx="243.441" cy="271.15" rx="6.546" ry="6.173"/>
			<path style="fill:#d93993;" d="M242.687,298.297l0.844,3.168c0.097,0.363,0.421,0.609,0.802,0.609h3.331     c0.854,0,1.145,1.093,0.425,1.594l-2.81,1.958c-0.322,0.225-0.475,0.622-0.378,0.985l0.844,3.168     c0.216,0.812-0.753,1.487-1.414,0.985l-2.58-1.958c-0.296-0.225-0.714-0.225-1.036,0l-2.81,1.958     c-0.72,0.502-1.61-0.173-1.298-0.985l1.215-3.168c0.139-0.363,0.033-0.761-0.262-0.985l-2.58-1.958     c-0.661-0.502-0.242-1.594,0.612-1.594h3.331c0.382,0,0.735-0.246,0.874-0.609l1.215-3.168     C241.322,297.485,242.47,297.485,242.687,298.297z"/>
			<g>
				<path style="fill:#d93993;" d="M245.026,334.122l-0.522,8.896c-0.045,0.765-0.701,1.385-1.466,1.385h-7.787      c-0.765,0-1.349-0.62-1.304-1.385l0.65-11.081c0.045-0.765,0.701-1.385,1.466-1.385h5.601L245.026,334.122z"/>
				<path style="fill:#FFFFFF;" d="M241.665,330.552l3.361,3.571h-2.186c-0.765,0-1.349-0.62-1.304-1.385L241.665,330.552       M240.773,328.098l-0.141,2.394l-0.128,2.186c-0.039,0.657,0.185,1.279,0.629,1.75s1.05,0.729,1.707,0.729h2.186h2.392      l-1.639-1.741l-3.361-3.571L240.773,328.098L240.773,328.098z"/>
			</g>
			<path style="opacity:0.2;fill:#d93993;" d="M323.495,269.844h-63.781c-1.106,0-1.957-0.905-1.892-2.01l0,0     c0.065-1.106,1.023-2.01,2.128-2.01h63.781c1.106,0,1.957,0.905,1.892,2.01l0,0C325.559,268.939,324.601,269.844,323.495,269.844     z"/>
			<path style="opacity:0.2;fill:#d93993;" d="M311.407,276.476h-52.082c-1.106,0-1.957-0.905-1.892-2.01l0,0     c0.065-1.106,1.023-2.01,2.128-2.01h52.082c1.106,0,1.957,0.905,1.892,2.01l0,0C313.47,275.572,312.513,276.476,311.407,276.476z     "/>
			<path style="opacity:0.2;fill:#d93993;" d="M321.397,305.62H303.8c-1.106,0-2.064,0.905-2.128,2.01l0,0     c-0.065,1.106,0.787,2.01,1.892,2.01h17.597c1.106,0,2.064-0.905,2.128-2.01l0,0C323.354,306.524,322.503,305.62,321.397,305.62z     "/>
			<path style="opacity:0.2;fill:#d93993;" d="M293.515,305.62h-35.899c-1.106,0-2.063,0.905-2.128,2.01l0,0     c-0.065,1.106,0.787,2.01,1.892,2.01h35.899c1.106,0,2.063-0.905,2.128-2.01l0,0C295.472,306.524,294.621,305.62,293.515,305.62z     "/>
			<path style="opacity:0.2;fill:#d93993;" d="M310.087,298.987h-52.082c-1.106,0-2.063,0.905-2.128,2.01l0,0     c-0.065,1.106,0.787,2.01,1.892,2.01h52.082c1.106,0,2.063-0.905,2.128-2.01l0,0     C312.044,299.892,311.192,298.987,310.087,298.987z"/>
			<path style="opacity:0.2;fill:#d93993;" d="M319.452,338.784h-63.781c-1.106,0-2.064,0.905-2.128,2.01v0     c-0.065,1.106,0.787,2.01,1.892,2.01h63.781c1.106,0,2.064-0.905,2.128-2.01v0C321.409,339.688,320.558,338.784,319.452,338.784z     "/>
			<path style="opacity:0.2;fill:#d93993;" d="M308.142,332.151H256.06c-1.106,0-2.063,0.905-2.128,2.01l0,0     c-0.065,1.106,0.787,2.01,1.893,2.01h52.081c1.106,0,2.063-0.905,2.128-2.01l0,0     C310.099,333.055,309.247,332.151,308.142,332.151z"/>
		</g>
	</g>
</g>
</svg>